/* XPM */
static char * bitcoin16_xpm[] = {
"16 16 77 1",
" 	c None",
".	c #FFCC00",
"+	c #FFCB00",
"@	c #FFCF0D",
"#	c #FFDD52",
"$	c #FFDE59",
"%	c #FFDD51",
"&	c #FFCF10",
"*	c #FFD52B",
"=	c #FFD115",
"-	c #FFEFAC",
";	c #FFE16A",
">	c #FFDB4C",
",	c #FFDE57",
"'	c #FFEB9B",
")	c #FFE88E",
"!	c #FFE888",
"~	c #FFCA00",
"{	c #FFC900",
"]	c #FFEEAA",
"^	c #FFEA95",
"/	c #FFFFFD",
"(	c #FFE164",
"_	c #FFFEF9",
":	c #FFE782",
"<	c #FFD015",
"[	c #FFFBEB",
"}	c #FFD52D",
"|	c #FFFBE9",
"1	c #FFFEFC",
"2	c #FFD83C",
"3	c #FFF1B9",
"4	c #FFE066",
"5	c #FFFBEA",
"6	c #FFFFFF",
"7	c #FFFEFA",
"8	c #FFE784",
"9	c #FFD220",
"0	c #FFCE06",
"a	c #FFCC01",
"b	c #FFCD06",
"c	c #FFDA48",
"d	c #FFF5CE",
"e	c #FFF9DF",
"f	c #FFF6D1",
"g	c #FFD119",
"h	c #FFD11B",
"i	c #FFE062",
"j	c #FFCD03",
"k	c #FFCD02",
"l	c #FFD83D",
"m	c #FFDF5D",
"n	c #FFEEA7",
"o	c #FFE370",
"p	c #FFDA43",
"q	c #FFEEA8",
"r	c #FFCE08",
"s	c #FFCE0B",
"t	c #FFFAE7",
"u	c #FFE785",
"v	c #FFE165",
"w	c #FFD426",
"x	c #FFD11A",
"y	c #FFFCF0",
"z	c #FFD734",
"A	c #FFE788",
"B	c #FFF6CF",
"C	c #FFDB48",
"D	c #FFD012",
"E	c #FFD42B",
"F	c #FFF0B2",
"G	c #FFE373",
"H	c #FFD630",
"I	c #FFE065",
"J	c #FFE887",
"K	c #FFE579",
"L	c #FFD52A",
"     ......     ",
"   ....+++..+   ",
"  ...+@#$%&.*+  ",
" ....=-;>,')!~. ",
" ...{]^+++,/(~. ",
"....~_:<@.{[}+. ",
"....{|1^2*~3....",
"....~4567890....",
"...ab~cde6fg....",
"..+hijklmn6o+...",
"..+pqjajrstu+.. ",
" .~v7w..+xyz+.. ",
" .~AqBCDEFG.... ",
"  .H.rIJKL+...  ",
"   ~..~~~+...   ",
"      ....      "};
