/* XPM */
static char * bitcoin32_xpm[] = {
"64 64 238 2",
"  	c None",
". 	c #FFCC00",
"+ 	c #FFCB00",
"@ 	c #FFCA00",
"# 	c #FFC900",
"$ 	c #FFCF12",
"% 	c #FFDB4A",
"& 	c #FFE26D",
"* 	c #FFE57E",
"= 	c #FFE57F",
"- 	c #FFE370",
"; 	c #FFDC50",
"> 	c #FFD21A",
", 	c #FFCD05",
"' 	c #FFE169",
") 	c #FFF6D2",
"! 	c #FFFFFF",
"~ 	c #FFFFFD",
"{ 	c #FFFFFE",
"] 	c #FFF8DB",
"^ 	c #FFE477",
"/ 	c #FFCE0A",
"( 	c #FFDC4F",
"_ 	c #FFE787",
": 	c #FFD93C",
"< 	c #FFCD02",
"[ 	c #FFCE09",
"} 	c #FFDF5E",
"| 	c #FFFBEC",
"1 	c #FFFEFA",
"2 	c #FFFCF1",
"3 	c #FFFCED",
"4 	c #FFFBED",
"5 	c #FFFCF2",
"6 	c #FFFEFB",
"7 	c #FFE375",
"8 	c #FFCE0B",
"9 	c #FFCC02",
"0 	c #FFE16A",
"a 	c #FFE060",
"b 	c #FFCC01",
"c 	c #FFD322",
"d 	c #FFEDA5",
"e 	c #FFFCEE",
"f 	c #FFF2BE",
"g 	c #FFE680",
"h 	c #FFDB48",
"i 	c #FFD52A",
"j 	c #FFD321",
"k 	c #FFD42B",
"l 	c #FFDB49",
"m 	c #FFE681",
"n 	c #FFF3BF",
"o 	c #FFFDF4",
"p 	c #FFF4C5",
"q 	c #FFD839",
"r 	c #FFDF5F",
"s 	c #FFD83C",
"t 	c #FFD428",
"u 	c #FFF4C7",
"v 	c #FFF1B9",
"w 	c #FFDC51",
"x 	c #FFCE08",
"y 	c #FFDF5B",
"z 	c #FFF6D3",
"A 	c #FFFCEC",
"B 	c #FFE16B",
"C 	c #FFE26E",
"D 	c #FFD52B",
"E 	c #FFD014",
"F 	c #FFEA93",
"G 	c #FFD119",
"H 	c #FFD326",
"I 	c #FFF4C8",
"J 	c #FFFDF3",
"K 	c #FFFDF7",
"L 	c #FFF2BB",
"M 	c #FFF2BA",
"N 	c #FFEEAB",
"O 	c #FFD423",
"P 	c #FFFBE9",
"Q 	c #FFEB9B",
"R 	c #FFCE07",
"S 	c #FFDF60",
"T 	c #FFFDF6",
"U 	c #FFFAE9",
"V 	c #FFDA46",
"W 	c #FFDE5A",
"X 	c #FFE476",
"Y 	c #FFCD03",
"Z 	c #FFF3C4",
"` 	c #FFF1BA",
" .	c #FFCF0D",
"..	c #FFD013",
"+.	c #FFEFB0",
"@.	c #FFDA43",
"#.	c #FFFAE6",
"$.	c #FFEB9E",
"%.	c #FFFCF0",
"&.	c #FFF9DF",
"*.	c #FFD739",
"=.	c #FFE374",
"-.	c #FFE990",
";.	c #FFCF0E",
">.	c #FFF3C3",
",.	c #FFF5CB",
"'.	c #FFD118",
").	c #FFECA0",
"!.	c #FFE88E",
"~.	c #FFFEFC",
"{.	c #FFEDA4",
"].	c #FFFBEA",
"^.	c #FFE580",
"/.	c #FFDE5C",
"(.	c #FFCF0C",
"_.	c #FFEEA8",
":.	c #FFE167",
"<.	c #FFE478",
"[.	c #FFD735",
"}.	c #FFFBEB",
"|.	c #FFFDF5",
"1.	c #FFE064",
"2.	c #FFECA2",
"3.	c #FFFBE8",
"4.	c #FFDF5C",
"5.	c #FFDD52",
"6.	c #FFD323",
"7.	c #FFD427",
"8.	c #FFD21B",
"9.	c #FFE88D",
"0.	c #FFDF5D",
"a.	c #FFEC9E",
"b.	c #FFFAE8",
"c.	c #FFEFAF",
"d.	c #FFF7D7",
"e.	c #FFD21E",
"f.	c #FFCF11",
"g.	c #FFFAE4",
"h.	c #FFE067",
"i.	c #FFFDF8",
"j.	c #FFF9E1",
"k.	c #FFF7D8",
"l.	c #FFCD04",
"m.	c #FFF6CF",
"n.	c #FFF8DC",
"o.	c #FFF7D4",
"p.	c #FFE88A",
"q.	c #FFD21C",
"r.	c #FFCF0B",
"s.	c #FFE789",
"t.	c #FFF3C1",
"u.	c #FFEB97",
"v.	c #FFEEAA",
"w.	c #FFE063",
"x.	c #FFE26B",
"y.	c #FFCD06",
"z.	c #FFCD07",
"A.	c #FFE474",
"B.	c #FFD11A",
"C.	c #FFF0B0",
"D.	c #FFF4C6",
"E.	c #FFDE57",
"F.	c #FFF1B6",
"G.	c #FFEB98",
"H.	c #FFD116",
"I.	c #FFEEA9",
"J.	c #FFDD53",
"K.	c #FFEEA7",
"L.	c #FFE57A",
"M.	c #FFD52F",
"N.	c #FFEB9C",
"O.	c #FFD222",
"P.	c #FFD736",
"Q.	c #FFD325",
"R.	c #FFF9E2",
"S.	c #FFEFAA",
"T.	c #FFF5CC",
"U.	c #FFF9DE",
"V.	c #FFF6CD",
"W.	c #FFFEF9",
"X.	c #FFF7D6",
"Y.	c #FFDE5B",
"Z.	c #FFD52C",
"`.	c #FFEA92",
" +	c #FFC800",
".+	c #FFE061",
"++	c #FFF9E3",
"@+	c #FFDE5D",
"#+	c #FFD113",
"$+	c #FFD940",
"%+	c #FFFCEF",
"&+	c #FFF5CF",
"*+	c #FFD220",
"=+	c #FFE270",
"-+	c #FFEB9A",
";+	c #FFD943",
">+	c #FFEC9D",
",+	c #FFD93F",
"'+	c #FFF8DD",
")+	c #FFF6D0",
"!+	c #FFEA96",
"~+	c #FFD83E",
"{+	c #FFE26C",
"]+	c #FFD738",
"^+	c #FFF6D4",
"/+	c #FFCE0C",
"(+	c #FFF1B8",
"_+	c #FFCF10",
":+	c #FFEDA2",
"<+	c #FFD011",
"[+	c #FFEC9F",
"}+	c #FFDA42",
"|+	c #FFEC9C",
"1+	c #FFE475",
"2+	c #FFF3C0",
"3+	c #FFF2BC",
"4+	c #FFF3C5",
"5+	c #FFDE58",
"6+	c #FFFEF8",
"7+	c #FFFFFB",
"8+	c #FFE479",
"9+	c #FFD52E",
"0+	c #FFD012",
"a+	c #FFE98E",
"b+	c #FFE373",
"c+	c #FFDB4C",
"d+	c #FFDB4D",
"e+	c #FFCF0F",
"f+	c #FFD837",
"g+	c #FFFAE7",
"h+	c #FFF7D5",
"i+	c #FFF5CD",
"j+	c #FFF9E0",
"k+	c #FFD015",
"l+	c #FFE271",
"m+	c #FFD00F",
"n+	c #FFE88C",
"o+	c #FFE372",
"                                                      . . . . . . . . . .                                                       ",
"                                              . . . . . . . . . . . . . . . . . .                                               ",
"                                        . . . . . . . . . . . . . . . . . . . . . . . .                                         ",
"                                  . . . . . . . . . . . . . . . . . . . . . . . . . . . . . .                                   ",
"                                . . . . . . . . . . . . . . . . . . . . . . . . . . . . . . . .                                 ",
"                            . . . . . . . . . . . . . . . . . . . . . . . . . . . . . . . . . . . .                             ",
"                          . . . . . . . . . . . . . . . . . . . . . . . . . . . . . . . . . . . . . .                           ",
"                        . . . . . . . . . . . . . . . . . . . . . . . . . . . . . . . . . . . . . . . .                         ",
"                    . . . . . . . . . . . . . . . . . . . . . . . . . . . . . . . . . . . . . . . . . . . .                     ",
"                  . . . . . . . . . . . . . . . . . . . . . + + @ @ @ @ @ + . . . . . . . . . . . . . . . . .                   ",
"                . . . . . . . . . . . . . . . . . . . . + # $ % & * = - ; > @ @ . . . . . . . . + @ + . . . . .                 ",
"                . . . . . . . . . . . . . . . . . . . , ' ) ! ~ { { { { ~ { ] ^ / . . . . . . , ( _ : < . . . .                 ",
"              . . . . . . . . . . . . . . . . . . [ } | ! ! ! 1 2 3 | 4 5 1 ! ! 6 7 8 . . . 9 0 ! ! a b . . . . .               ",
"            . . . . . . . . . . . . . . . . . + c d ! ! ! e f g h i j k l m n o ! ! p q b . r ! ! { s . . . . . . .             ",
"          . . . . . . . . . . . . . . . . . + t u ! ! ! v w , # + + + + + # x y z ! ! A B C { ! ! ] D . . . . . . . .           ",
"          . . . . . . . . . . . . . . . . + E ) ! ! ! F G + . . . . . . . . . + H I ! ! J K ! ! ! L G . . . . . . . .           ",
"        . . . . . . . . . . . . . . . . . @ M ! ! ! N E . . . . . . . . . . . . . O P ! ! ! ! ! ! Q R . . . . . . . . .         ",
"      . . . . . . . . . . . . . . . . . @ S T ! ! U V + . . . . . . . . . . . . . b W ! ! ! ! ! ! X @ . . . . . . . . . .       ",
"      . . . . . . . . . . . . . . . . . Y Z ! ! ! `  .. . . . . . . . . . . . . . . ..+.! ! ! ! J W + . . . . . . . . . .       ",
"      . . . . . . . . . . . . . . . . + @.#.! ! ! $.@ . . . . . . . . . . . . . . . @ ( %.! ! ! &.*.+ . . . . . . . . . .       ",
"    . . . . . . . . . . . . . . . . . @ =.{ ! ! { -.# . . . . . . . . . . . . . . . . ;.>.! ! ! ,.'.+ . . . . . . . . . . .     ",
"    . . . . . . . . . . . . . . . . . . F ! ! ! ! ).@ . . . + @ b . . . . . . . . . . @ !.~.! ! v + . . . . . . . . . . . .     ",
"    . . . . . . . . . . . . . . . . . [ {.! ! ! ! Z '.. . x ].^.@ . . . . . . . . . . @ /.J ! ~ F # . . . . . . . . . . . .     ",
"  . . . . . . . . . . . . . . . . . . (._.! ! ! ! ~ :.+ . H ! <.@ . . . . . . . . . . + [.}.! |.1.@ . . . . . . . . . . . . .   ",
"  . . . . . . . . . . . . . . . . . . x 2.! ! ! ! ! 3.@.+ 4.1 5.@ . . 9 6.7., . . . . + 8.#.! e q + . . . . . . . . . . . . .   ",
"  . . . . . . . . . . . . . . . . . . + 9.! ! ! ! ! ! | 0.a.b.i + . . x c.d.e.. . . . + f.g.! b.(.+ . . . . . . . . . . . . .   ",
"  . . . . . . . . . . . . . . . . . . @ h.i.! ! ! ! ! ! { e j.c # + . 8 k.+.[ . . . . . l.].! m.# . . . . . . . . . . . . . .   ",
". . . . . . . . . . . . . . . . . . . + t n.! ! ! ! ! ! ! ! 1 o.p.q.@ r.! -.@ . . . . . [ s.t.p.@ . . . . . . . . . . . . . . . ",
". . . . . . . . . . . . . . . . . . . . @ u.~ ! ! ! ! ! ! ! ! ! 6 T v.w.! x.@ . . . . . b y./ z.. . . . . . . . . . . . . . . . ",
". . . . . . . . . . . . . . . . . . . . + (.] ! ! ! ! ! ! ! ! ! ! ! ! ! o A.y.b . . . . . . . . . . . . . . . . . . . . . . . . ",
". . . . . . . . . . . . . . . . . . . . . + 7.n.! ! ! ! ! ! ! ! ! ! ! ! ! ! d.4.B.+ . . . . . . . . . . . . . . . . . . . . . . ",
". . . . . . . . . . . . . . . . . . . . . . + c C.1 ! ! ! ! ! ! ! ! ! ! ! ! ! ! D.E.z.+ . . . . . . . . . . . . . . . . . . . . ",
". . . . . . . . . . . . . . . . . . . . . . . + / W F.! ! ! ! ! ! ! ! ! ! ! ! ! ! 1 G.H.+ . . . . . . . . . . . . . . . . . . . ",
". . . . . . . . . . . . . . . . . . . . . . . . . . ;.a K ! ! ! ! ! ! ! ! ! ! ! ! ! ! I.... . . . . . . . . . . . . . . . . . . ",
". . . . . . . . . . . . . . . . . . . . . . . . . . @ J.6 p.K.! ! ! ! ! ! ! ! ! ! ! ! ! L., . . . . . . . . . . . . . . . . . . ",
". . . . . . . . . . . . . . . . . . . . . . . . . . @ m ! M.@ j N.].~ ! ! ! ! ! ! ! ! ! T O.. . . . . . . . . . . . . . . . . . ",
". . . . . . . . . . . . . . . + 7.P.Q.. . . . . . . # c.! b . + # , R.6 }.! ! ! ! ! ! ! ! ^ . . . . . . . . . . . . . . . . . . ",
"  . . . . . . . . . . . . . . # S.! T.b . . . . . . < n.U.+ . . . + 5 V.h c.W.! ! ! ! ! ! T.b . . . . . . . . . . . . . . . .   ",
"  . . . . . . . . . . . . . . # X.! g.b . . . . . . y.Y.4.+ . . + Z.6 `. +8 .+2 ! ! ! ! ! ! < . . . . . . . . . . . . . . . .   ",
"  . . . . . . . . . . . . . + ..b.! ++[ . . . . . . . . Y . . . @ @+{ @+@ . + w.! ! ! ! ! ! #+. . . . . . . . . . . . . . . .   ",
"  . . . . . . . . . . . . . + $+%+! #.B.+ . . . . . . . . . . . # !.! 7.+ . . @ &+! ! ! ! ! *+. . . . . . . . . . . . . . . .   ",
"    . . . . . . . . . . . . @ & T ! }.P.+ . . . . . . . . . . . . . 6.9 . . . @ =+! ! ! ! ! '.. . . . . . . . . . . . . . .     ",
"    . . . . . . . . . . . . # -+{ ! o .+@ . . . . . . . . . . . . . + . . . . + ;+! ! ! ! ! , . . . . . . . . . . . . . . .     ",
"    . . . . . . . . . . . . . L ! ! { >+@ . . . . . . . . . . . . . . . . . . + ,+! ! ! ! '+. . . . . . . . . . . . . . . .     ",
"      . . . . . . . . . . + e.&+! ! ! )+*++ . . . . . . . . . . . . . . . . . + 0.! ! ! ! !+. . . . . . . . . . . . . . .       ",
"      . . . . . . . . . . + ~+R.! ! ! { {++ . . . . . . . . . . . . . . . . . # 2.! ! ! ! ]+. . . . . . . . . . . . . . .       ",
"      . . . . . . . . . . + } T ! ! ! ! ^+Q.. . . . . . . . . . . . . . . . . /+T ! ! ! (+_+. . . . . . . . . . . . . . .       ",
"        . . . . . . . . . + * ! ! ! ! ! ! :+<+. . . . . . . . . . . . . . . + [+{ ! ! o }+. . . . . . . . . . . . . . .         ",
"          . . . . . . . . [ a.! ! ! ! ! ! ! |+e.@ . . . . . . . . . . . + , ^ W.! ! 6 1+b . . . . . . . . . . . . . .           ",
"          . . . . . . . . q.2+! ! ! 3+(+! ! ! 4+5+z.# + . . . . . + @ @ D G.6+! ! 7+8+, + . . . . . . . . . . . . . .           ",
"            . . . . . . . 9+j.! ! ` 0+G a+! ! ! J 3+b+Z.+  +#  +# 0+c+Q ] ! ! ! &.d+Y + . . . . . . . . . . . . . .             ",
"              . . . . . . $+! ! 4+e+. . l.f+f ! ! ! 6+3 g+h+I i+j+].5 ~ ! ! 6+^.k+. . . . . . . . . . . . . . . .               ",
"                . . . . b .+! )+k+. . . . . + Z.N.4 { ~ { { ! { { { ~ 6 X.l+f.. . . . . . . . . . . . . . . . .                 ",
"                . . . . . x m+. . . . . . . . + @ + i } g !+a.Q n+o+% E # + . . . . . . . . . . . . . . . . . .                 ",
"                  . . . . . + . . . . . . . . . . . + @ @ # # # # @ + + . . . . . . . . . . . . . . . . . . .                   ",
"                    . . . . . . . . . . . . . . . . . . . . . . . . . . . . . . . . . . . . . . . . . . . .                     ",
"                        . . . . . . . . . . . . . . . . . . . . . . . . . . . . . . . . . . . . . . . .                         ",
"                          . . . . . . . . . . . . . . . . . . . . . . . . . . . . . . . . . . . . . .                           ",
"                            . . . . . . . . . . . . . . . . . . . . . . . . . . . . . . . . . . . .                             ",
"                                . . . . . . . . . . . . . . . . . . . . . . . . . . . . . . . .                                 ",
"                                  . . . . . . . . . . . . . . . . . . . . . . . . . . . . . .                                   ",
"                                        . . . . . . . . . . . . . . . . . . . . . . . .                                         ",
"                                              . . . . . . . . . . . . . . . . . .                                               ",
"                                                      . . . . . . . . . .                                                       "};
