/* XPM */
static char * bitcoin16_xpm[] = {
"32 32 153 2",
"  	c None",
". 	c #FFCC00",
"+ 	c #FFCB00",
"@ 	c #FFCA00",
"# 	c #FFC900",
"$ 	c #FFCC02",
"% 	c #FFDA45",
"& 	c #FFEC9C",
"* 	c #FFF3C3",
"= 	c #FFF4C4",
"- 	c #FFECA0",
"; 	c #FFDC4E",
"> 	c #FFCD03",
", 	c #FFD42A",
"' 	c #FFD117",
") 	c #FFD52D",
"! 	c #FFF5CD",
"~ 	c #FFFFFF",
"{ 	c #FFF8DB",
"] 	c #FFECA1",
"^ 	c #FFEA95",
"/ 	c #FFF2BB",
"( 	c #FFFEFA",
"_ 	c #FFF7D6",
": 	c #FFD83B",
"< 	c #FFE169",
"[ 	c #FFFFFE",
"} 	c #FFDC4C",
"| 	c #FFD93F",
"1 	c #FFFEF9",
"2 	c #FFFBE8",
"3 	c #FFDF5B",
"4 	c #FFD21E",
"5 	c #FFFFFD",
"6 	c #FFEB9A",
"7 	c #FFF9E2",
"8 	c #FFD118",
"9 	c #FFFBE9",
"0 	c #FFFEF8",
"a 	c #FFDE5A",
"b 	c #FFF5CE",
"c 	c #FFF7D4",
"d 	c #FFE88B",
"e 	c #FFDE58",
"f 	c #FFFDF6",
"g 	c #FFEEAC",
"h 	c #FFF7D3",
"i 	c #FFF9DD",
"j 	c #FFC800",
"k 	c #FFF9DF",
"l 	c #FFE477",
"m 	c #FFF8DE",
"n 	c #FFFBED",
"o 	c #FFD427",
"p 	c #FFD83A",
"q 	c #FFE67F",
"r 	c #FFCF0D",
"s 	c #FFEEA8",
"t 	c #FFD942",
"u 	c #FFF2BE",
"v 	c #FFE57C",
"w 	c #FFE26C",
"x 	c #FFCD04",
"y 	c #FFE26D",
"z 	c #FFCE0D",
"A 	c #FFE889",
"B 	c #FFFFFC",
"C 	c #FFD00F",
"D 	c #FFEEA9",
"E 	c #FFEB97",
"F 	c #FFD634",
"G 	c #FFCF0F",
"H 	c #FFF7D7",
"I 	c #FFE063",
"J 	c #FFD52E",
"K 	c #FFFCF1",
"L 	c #FFFAE7",
"M 	c #FFEEA6",
"N 	c #FFCE09",
"O 	c #FFD11A",
"P 	c #FFDB48",
"Q 	c #FFF9E1",
"R 	c #FFFDF5",
"S 	c #FFF4C5",
"T 	c #FFE061",
"U 	c #FFE57D",
"V 	c #FFFEFB",
"W 	c #FFE991",
"X 	c #FFD83D",
"Y 	c #FFEA98",
"Z 	c #FFE478",
"` 	c #FFCE0C",
" .	c #FFE166",
"..	c #FFD735",
"+.	c #FFDC4B",
"@.	c #FFE681",
"#.	c #FFFCEF",
"$.	c #FFF3C1",
"%.	c #FFFEF7",
"&.	c #FFF7D5",
"*.	c #FFD21F",
"=.	c #FFF8DD",
"-.	c #FFE26B",
";.	c #FFD320",
">.	c #FFD52B",
",.	c #FFD425",
"'.	c #FFF4C7",
").	c #FFE479",
"!.	c #FFCC01",
"~.	c #FFE475",
"{.	c #FFCD02",
"].	c #FFD322",
"^.	c #FFDD53",
"/.	c #FFCF10",
"(.	c #FFF0B6",
"_.	c #FFCE07",
":.	c #FFEC9E",
"<.	c #FFEB99",
"[.	c #FFFEFD",
"}.	c #FFFCF0",
"|.	c #FFD21D",
"1.	c #FFEEAA",
"2.	c #FFF1B5",
"3.	c #FFCE08",
"4.	c #FFEC9D",
"5.	c #FFEB9E",
"6.	c #FFD839",
"7.	c #FFD837",
"8.	c #FFF6CE",
"9.	c #FFFAE3",
"0.	c #FFEA97",
"a.	c #FFD119",
"b.	c #FFCD06",
"c.	c #FFCE0B",
"d.	c #FFD631",
"e.	c #FFF5CB",
"f.	c #FFD016",
"g.	c #FFEC9F",
"h.	c #FFD323",
"i.	c #FFE783",
"j.	c #FFF8DF",
"k.	c #FFF9E0",
"l.	c #FFE064",
"m.	c #FFDE5B",
"n.	c #FFFCEC",
"o.	c #FFF6D2",
"p.	c #FFE474",
"q.	c #FFD52C",
"r.	c #FFEFAF",
"s.	c #FFF0B3",
"t.	c #FFEFAD",
"u.	c #FFE88E",
"v.	c #FFD012",
"                        . . . . . . . .                         ",
"                  . . . . . . . . . . . . . .                   ",
"              . . . . . . . . . . . . . . . . . .               ",
"            . . . . . . . . . . . . . . . . . . . .             ",
"          . . . . . . . . . + @ # # @ + . . . . + . .           ",
"        . . . . . . . . . $ % & * = - ; > . . . , ' . .         ",
"      . . . . . . . . . ) ! ~ { ] ^ / ( _ : > < [ } + . .       ",
"    . . . . . . . . + | 1 2 3 + # @ # 4 / 5 6 ~ 7 4 + . . .     ",
"    . . . . . . . + 8 9 0 a # . . . . @ 8 b ~ ~ c + . . . .     ",
"  . . . . . . . . # d ~ 7 + . . . . . . @ e f [ g # . . . . .   ",
"  . . . . . . . . # h ~ i j . + . . . . . + k 5 l @ . . . . .   ",
"  . . . . . . . . > m ~ n o p q r . . . . # s 5 t + . . . . .   ",
". . . . . . . . . + { ~ ~ u v w x . y z . @ A B C + . . . . . . ",
". . . . . . . . . # D ~ ~ ~ ~ E F G H + . @ I * @ . . . . . . . ",
". . . . . . . . . + J K ~ ~ ~ ~ L M _ N @ . N O . . . . . . . . ",
". . . . . . . . . . + P Q ~ ~ ~ ~ ~ R S T . . + . . . . . . . . ",
". . . . . . . . . . . . O U V ~ ~ ~ ~ ~ B W x . . . . . . . . . ",
". . . . . . . . . . . . . X Y Z 2 ~ ~ ~ ~ ~ a . . . . . . . . . ",
". . . . . . . `  .... . . +.@.# @ #.$.%.~ ~ &.+ . . . . . . . . ",
". . . . . . . *.=.-.. . . ;.>.+ ,.'.# ).0 ~ ~ !.. . . . . . . . ",
"  . . . . . . J 1 ~.{.. . + + + ].^.+ /.(.~ ~ _.. . . . . . .   ",
"  . . . . . . t ~ :.` . . . . . . . . $ <.~ [.. . . . . . . .   ",
"  . . . . . > y ~ }.|.. . . . . . . . r 1.~ 2.+ . . . . . . .   ",
"    . . . . 3.4.~ ~ 5.x . . . . . . . 6.2 ~ 7.. . . . . . .     ",
"    . . . . r 8.[ 9.~ 0.a.b.+ + . c.d.e.~ ~.> . . . . . . .     ",
"      . . . f.~ g.h.i.j.k.W l.m.-.] n.o.T !.. . . . . . .       ",
"        . . C p.a.@ @ q. .0.r.s.t.u.m.4 @ . . . . . . .         ",
"          . . + . . . + + x G v.r $ + + . . . . . . .           ",
"            . . . . . . . . . . . . . . . . . . . .             ",
"              . . . . . . . . . . . . . . . . . .               ",
"                  . . . . . . . . . . . . . .                   ",
"                        . . . . . . . .                         "};
